:SAMPLES-PER-SECOND 24
:FULLY-SPECIFIED
:DEGREES
159
root  20.1097 39.5913 26.6497 -59.3927 -77.1648 57.6163
RightUpLeg  -2.76408 -8.99885 -0.713156
RightLeg  12.9779 -48.619 -5.35722
RightFoot  -19.1726 -1.18225 -15.2845
RightToes  -2.08645e-008 3.77894e-005 6.81332e-007
Spine  7.72251 -1.82765 -12.1592
Spine1  7.41349 -3.19659 2.99647
HEad  -52.2755 58.0438 -33.8943
LeftShoulder1  4.86277 -11.1429 -27.1107
LeftArm  27.9963 0.239145 -29.2326
LeftForeArm  63.7485 -76.1181 -39.9358
LeftHand  0.324363 -6.95111 -2.69193
RightShoulder  3.43802 6.55352 28.2273
RightArm  -5.57208 -28.1579 15.5884
RightForeArm  35.8194 70.2766 28.6966
RightHand  -0.0664639 7.82814 -0.948253
LeftUpLeg  -12.9324 0.812273 6.80236
LeftLeg  8.63115 9.55289 2.99153
LeftFoot  -8.92028 0.269269 -10.3687
LeftToes  1.24767e-006 1.47042e-008 1.32732e-009
160
root  19.3959 39.7215 26.0672 -21.7625 -64.7325 24.2156
RightUpLeg  -4.08923 -5.15754 0.296
RightLeg  5.46632 -52.2436 0.829995
RightFoot  -19.0494 -1.02534 -13.2324
RightToes  -2.08645e-008 3.77894e-005 6.81332e-007
Spine  5.24798 -3.09152 -15.4721
Spine1  6.03198 -4.62625 4.76088
HEad  -48.5986 52.695 -30.5275
LeftShoulder1  4.38499 -10.3504 -25.5008
LeftArm  24.8594 2.06253 -25.7352
LeftForeArm  78.8319 -79.0949 -55.7076
LeftHand  0.319892 -6.70361 -2.72203
RightShoulder  3.48468 6.48298 28.9568
RightArm  -5.68601 -35.9415 15.883
RightForeArm  54.6792 77.1422 49.436
RightHand  0.118165 8.3943 0.603976
LeftUpLeg  -11.334 0.89716 5.31337
LeftLeg  10.6948 11.8488 3.42219
LeftFoot  -8.45789 0.342312 -11.5531
LeftToes  1.24767e-006 1.47042e-008 1.32732e-009
161
root  18.9714 39.5464 25.478 -10.9004 -50.968 16.1713
RightUpLeg  -7.95768 -3.94306 1.16409
RightLeg  6.38896 -49.2882 0.122979
RightFoot  -18.7605 -0.898901 -11.8637
RightToes  -2.08645e-008 3.77894e-005 6.81332e-007
Spine  7.65378 -3.19489 -17.002
Spine1  3.96228 -5.06879 5.08909
HEad  -48.7924 43.0529 -29.8058
LeftShoulder1  4.03458 -9.68616 -24.3953
LeftArm  19.488 -2.80461 -23.715
LeftForeArm  88.186 -80.0963 -66.4223
LeftHand  0.204048 -6.04325 -1.74447
RightShoulder  3.54335 6.4875 29.5415
RightArm  -5.22434 -39.7396 16.7024
RightForeArm  67.6762 78.8546 61.0406
RightHand  0.226197 8.37267 1.52182
LeftUpLeg  -11.204 -0.399841 7.99607
LeftLeg  16.7714 15.8377 5.8143
LeftFoot  -7.51052 0.366976 -9.6707
LeftToes  1.24767e-006 1.47042e-008 1.32732e-009
162
root  18.716 39.1614 24.7792 -6.1283 -36.7577 12.0575
RightUpLeg  -12.1976 -11.0099 1.95958
RightLeg  13.036 -47.2918 -4.1956
RightFoot  -18.6882 -1.01884 -13.8305
RightToes  -2.08645e-008 3.77894e-005 6.81332e-007
Spine  12.2636 -2.91074 -17.0265
Spine1  4.94037 -5.71973 5.75034
HEad  -50.3057 32.1073 -29.4276
LeftShoulder1  4.15417 -9.71552 -25.2713
LeftArm  12.0722 -12.973 -22.5538
LeftForeArm  76.5446 -79.0311 -56.4714
LeftHand  -0.097415 -4.52682 1.4293
RightShoulder  3.56103 6.51447 29.6245
RightArm  -4.50151 -37.3315 18.2666
RightForeArm  55.2836 77.2977 50.7699
RightHand  0.032372 8.00311 -0.0966016
LeftUpLeg  -11.8827 -4.10807 13.003
LeftLeg  22.7573 16.4194 7.73764
LeftFoot  -6.07903 0.452259 -9.03793
LeftToes  1.24767e-006 1.47042e-008 1.32732e-009
163
root  18.3785 38.8771 24.2174 -2.9812 -23.0111 10.2393
RightUpLeg  -15.4822 -22.2881 2.1961
RightLeg  16.9757 -49.3311 -5.87449
RightFoot  -18.4132 -1.17984 -16.9411
RightToes  -2.08645e-008 3.77894e-005 6.81332e-007
Spine  13.7524 -2.85922 -15.9762
Spine1  8.47233 -6.39304 6.98599
HEad  -47.916 23.0815 -25.8566
LeftShoulder1  4.78149 -10.6374 -27.7388
LeftArm  7.27451 -23.3132 -23.9946
LeftForeArm  56.8181 -74.1192 -34.283
LeftHand  -0.443605 -4.07585 5.69579
RightShoulder  3.54618 6.47566 29.6139
RightArm  -5.0581 -30.8433 19.5135
RightForeArm  37.6119 72.0817 32.7742
RightHand  -0.138282 9.12949 -1.49813
LeftUpLeg  -13.9503 -5.96337 17.2323
LeftLeg  25.4888 17.1287 9.02114
LeftFoot  -5.44419 0.565267 -10.3262
LeftToes  1.24767e-006 1.47042e-008 1.32732e-009
164
root  17.9075 38.8401 23.8457 -0.0581055 -13.8721 10.626
RightUpLeg  -17.4021 -25.2414 0.615473
RightLeg  16.5742 -56.4522 -4.03412
RightFoot  -17.7064 -1.22254 -19.6233
RightToes  -2.08645e-008 3.77894e-005 6.81332e-007
Spine  12.3394 -2.22032 -14.677
Spine1  10.5508 -5.41485 6.55512
HEad  -43.3792 17.0412 -21.7244
LeftShoulder1  5.57986 -11.7328 -30.607
LeftArm  6.43119 -25.8344 -27.3173
LeftForeArm  49.4694 -69.0119 -23.9464
LeftHand  -0.677059 -4.17506 8.49895
RightShoulder  3.55429 6.44264 29.8186
RightArm  -6.06198 -24.3345 20.7978
RightForeArm  33.4739 66.9777 23.5321
RightHand  -0.301862 9.37297 -2.77423
LeftUpLeg  -15.2233 -2.69588 18.2202
LeftLeg  26.5805 18.7827 10.2573
LeftFoot  -5.08218 0.643573 -11.1882
LeftToes  1.24767e-006 1.47042e-008 1.32732e-009
165
root  17.4207 39.0669 23.5379 1.48157 -10.2601 11.8223
RightUpLeg  -16.4834 -15.7772 -2.78921
RightLeg  9.11814 -68.9871 2.56602
RightFoot  -15.4335 -0.906846 -22.2582
RightToes  -2.08645e-008 3.77894e-005 6.81332e-007
Spine  12.1908 -1.3184 -12.754
Spine1  10.0346 -3.24808 3.25285
HEad  -41.1692 14.7305 -20.1743
LeftShoulder1  6.10704 -12.2777 -32.6977
LeftArm  5.45381 -16.252 -27.3915
LeftForeArm  51.4744 -71.2026 -27.6348
LeftHand  -0.705831 -3.58101 9.38586
RightShoulder  3.4714 6.33337 29.363
RightArm  -6.18972 -19.03 24.7549
RightForeArm  35.9474 67.497 23.9099
RightHand  -0.404739 8.88407 -3.67427
LeftUpLeg  -12.9632 3.09096 16.4544
LeftLeg  27.7448 16.6081 9.59337
LeftFoot  -5.03459 0.733249 -12.7139
LeftToes  1.24767e-006 1.47042e-008 1.32732e-009
166
root  17.0456 39.4143 23.3183 2.85132 -7.64923 12.968
RightUpLeg  -15.3001 -10.1933 -4.05778
RightLeg  -9.12217 -74.4969 17.4671
RightFoot  -11.9428 -0.203092 -23.1321
RightToes  -2.08645e-008 3.77894e-005 6.81332e-007
Spine  12.1175 -1.42653 -11.379
Spine1  9.08879 -2.45399 0.726569
HEad  -40.8032 14.9641 -19.5004
LeftShoulder1  6.20973 -12.2577 -33.3962
LeftArm  4.10953 1.08164 -25.5254
LeftForeArm  66.2907 -77.3377 -45.8958
LeftHand  -0.663026 -2.78061 9.64279
RightShoulder  3.34058 6.18563 28.5307
RightArm  -3.81536 -14.7443 29.3361
RightForeArm  43.3098 72.5555 32.6592
RightHand  -0.161109 8.93953 -1.69363
LeftUpLeg  -10.2108 6.95026 13.3035
LeftLeg  29.1234 10.9639 6.88353
LeftFoot  -5.50886 0.850553 -15.9654
LeftToes  1.24767e-006 1.47042e-008 1.32732e-009
167
root  16.7924 39.6908 23.1097 5.18433 -3.97516 13.7682
RightUpLeg  -15.2106 -8.68701 -4.6207
RightLeg  -25.0775 -74.9467 30.8081
RightFoot  -8.73875 0.449073 -22.0375
RightToes  -2.08645e-008 3.77894e-005 6.81332e-007
Spine  10.5972 -1.76082 -11.078
Spine1  8.81399 -2.72046 1.27309
HEad  -40.065 14.0648 -17.7863
LeftShoulder1  6.22418 -12.2148 -33.5947
LeftArm  3.49692 18.901 -24.3009
LeftForeArm  92.6256 -80.4152 -74.4085
LeftHand  -0.613311 -2.27631 9.48962
RightShoulder  3.29977 6.09837 28.4165
RightArm  -0.0282736 -12.986 29.9051
RightForeArm  70.355 78.8606 60.2128
RightHand  0.10893 8.38022 0.536851
LeftUpLeg  -9.29195 8.50889 9.5473
LeftLeg  31.4996 6.71422 4.77561
LeftFoot  -6.0781 0.91015 -18.8585
LeftToes  1.24767e-006 1.47042e-008 1.32732e-009
168
root  16.6856 39.8423 22.6848 6.68335 -0.983765 13.5251
RightUpLeg  -16.407 -8.72503 -4.8161
RightLeg  -24.005 -74.5613 29.6643
RightFoot  -6.63279 0.822446 -20.8125
RightToes  -2.08645e-008 3.77894e-005 6.81332e-007
Spine  10.1252 -1.12812 -9.52259
Spine1  8.88001 -2.16514 2.37486
HEad  -40.0139 10.8934 -15.8739
LeftShoulder1  6.26124 -12.3318 -33.5379
LeftArm  3.60832 33.4275 -23.3315
LeftForeArm  113.235 -80.5644 -97.4622
LeftHand  -0.593216 -2.26064 9.20519
RightShoulder  3.28709 5.99364 28.6699
RightArm  2.546 -13.8585 26.8804
RightForeArm  124.895 79.2814 115.427
RightHand  0.121346 7.79158 0.696399
LeftUpLeg  -8.10868 10.3546 6.63789
LeftLeg  35.0828 4.95097 4.10222
LeftFoot  -6.05583 0.994932 -20.5687
LeftToes  1.24767e-006 1.47042e-008 1.32732e-009
169
root  16.7089 39.8338 22.0442 7.10107 1.11438 11.8995
RightUpLeg  -18.4594 -9.93667 -4.26614
RightLeg  -11.2454 -74.3993 19.3199
RightFoot  -5.78335 0.934951 -19.8287
RightToes  -2.08645e-008 3.77894e-005 6.81332e-007
Spine  10.3931 -0.401071 -5.97356
Spine1  9.95722 -1.28156 2.65336
HEad  -40.6979 8.37297 -13.8534
LeftShoulder1  5.99167 -12.1811 -32.2
LeftArm  3.39046 44.4451 -23.5398
LeftForeArm  123.172 -79.9472 -109.832
LeftHand  -0.610176 -2.38383 9.31968
RightShoulder  3.21037 5.8553 28.3532
RightArm  3.70348 -15.1368 24.2597
RightForeArm  145.644 75.3309 138.922
RightHand  0.00301585 7.87686 -0.349543
LeftUpLeg  -6.57484 13.702 5.42385
LeftLeg  39.2971 2.96429 2.98611
LeftFoot  -5.63374 1.13854 -21.9207
LeftToes  1.24767e-006 1.47042e-008 1.32732e-009
170
root  16.7563 39.6205 21.3793 8.0946 3.61682 9.51208
RightUpLeg  -21.031 -11.6391 -3.13078
RightLeg  -1.69851 -74.4324 13.1229
RightFoot  -6.04481 0.861962 -19.2964
RightToes  -2.08645e-008 3.77894e-005 6.81332e-007
Spine  8.64964 -0.421363 -2.85901
Spine1  11.9665 -1.49848 3.94349
HEad  -39.5802 8.08748 -10.9882
LeftShoulder1  5.55628 -11.8027 -30.2855
LeftArm  2.11771 52.7309 -25.1101
LeftForeArm  128.799 -79.5402 -115.442
LeftHand  -0.604516 -2.43715 9.17646
RightShoulder  3.10954 5.73326 27.6955
RightArm  3.93629 -15.629 23.5885
RightForeArm  140.593 75.7222 136.705
RightHand  0.116427 7.81602 0.647718
LeftUpLeg  -6.54146 17.2312 5.17584
LeftLeg  43.7839 -0.187206 0.214502
LeftFoot  -5.73023 1.23937 -24.2657
LeftToes  1.24767e-006 1.47042e-008 1.32732e-009
171
root  16.7339 39.2058 20.6681 9.20642 5.85425 7.03583
RightUpLeg  -24.1836 -14.1577 -0.30546
RightLeg  5.5754 -73.4601 7.65904
RightFoot  -6.80487 0.753449 -19.9436
RightToes  -2.08645e-008 3.77894e-005 6.81332e-007
Spine  6.31219 -0.523012 -1.65389
Spine1  13.1078 -2.41556 6.84451
HEad  -37.0006 8.79303 -8.06754
LeftShoulder1  5.40929 -11.6831 -29.5931
LeftArm  1.21121 57.7913 -25.7282
LeftForeArm  133.882 -79.2009 -119.576
LeftHand  -0.572923 -2.43091 8.71533
RightShoulder  3.10508 5.69331 27.7968
RightArm  2.83447 -15.5072 24.2868
RightForeArm  106.593 79.7465 102.798
RightHand  0.0891867 7.98593 0.398624
LeftUpLeg  -6.89601 20.019 5.16801
LeftLeg  47.1543 -3.14037 -3.18436
LeftFoot  -5.09621 1.57684 -27.7759
LeftToes  1.24767e-006 1.47042e-008 1.32732e-009
172
root  16.5933 38.7226 19.8037 9.28918 5.99054 5.15131
RightUpLeg  -26.415 -12.4503 1.89617
RightLeg  8.25876 -75.0304 4.82951
RightFoot  -7.39281 0.702114 -21.5141
RightToes  -2.08645e-008 3.77894e-005 6.81332e-007
Spine  6.68602 -0.171777 -2.13324
Spine1  11.6027 -2.6035 9.04094
HEad  -35.5602 9.59812 -6.17135
LeftShoulder1  5.61365 -11.9021 -30.4251
LeftArm  1.67267 58.7321 -24.3359
LeftForeArm  136.743 -78.7993 -122.911
LeftHand  -0.579185 -2.23082 9.0266
RightShoulder  3.2829 5.86273 29.1183
RightArm  0.692093 -14.5433 26.0986
RightForeArm  46.1581 74.3968 39.0571
RightHand  -0.0360802 8.8724 -0.679071
LeftUpLeg  -5.70955 22.199 4.8666
LeftLeg  46.9077 -4.55069 -4.75494
LeftFoot  -2.77232 2.24626 -29.2787
LeftToes  1.24767e-006 1.47042e-008 1.32732e-009
